<svg width="133" height="122" viewBox="0 0 133 122" fill="none" xmlns="http://www.w3.org/2000/svg">
<path d="M133 21.4367L66.5697 0L0 21.2125L1.63182 26.8169L66.5837 6.08074L131.257 26.999L133 21.4367Z" fill="#111111"/>
<path d="M122.414 121.993H14.5608C13.6903 122.034 12.8207 121.897 12.0045 121.59C11.1882 121.283 10.4424 120.814 9.81203 120.209C9.18168 119.605 8.67993 118.878 8.33711 118.073C7.99429 117.269 7.81754 116.402 7.81754 115.527C7.81754 114.652 7.99429 113.785 8.33711 112.98C8.67993 112.176 9.18168 111.449 9.81203 110.845C10.4424 110.24 11.1882 109.77 12.0045 109.464C12.8207 109.157 13.6903 109.02 14.5608 109.061H122.484C124.139 109.147 125.698 109.87 126.836 111.081C127.974 112.291 128.604 113.895 128.595 115.56C128.586 117.225 127.939 118.823 126.787 120.021C125.636 121.219 124.07 121.925 122.414 121.993Z" fill="#111111"/>
<path d="M28.2709 30.852H36.5555V64.4782H28.2709V50.8316H21.2136V64.4782H12.8453V30.852H21.2136V43.1816H28.2709V30.852Z" fill="#D43031"/>
<path d="M39.1217 47.6651C39.1217 35.0553 44.1427 30.2355 52.1484 30.2355C60.154 30.2355 65.189 35.0413 65.189 47.7071C65.189 60.373 60.168 65.1507 52.1484 65.1507C44.1288 65.1507 39.1217 60.359 39.1217 47.6651ZM56.7649 47.6651C56.7649 39.791 55.161 37.4091 52.1484 37.4091C49.1358 37.4091 47.5319 39.791 47.5319 47.6231C47.5319 55.4552 49.1497 57.9351 52.1484 57.9351C55.147 57.9351 56.7649 55.6373 56.7649 47.7352V47.6651Z" fill="#D43031"/>
<path d="M87.086 30.852H97.7555V64.4782H90.4891V50.047C90.5728 46.4322 90.6425 42.8594 90.7401 39.2446C90.0707 42.8734 89.4291 46.4462 88.7875 50.047L85.8726 64.4782H79.7498L76.6117 50.033C75.9004 46.5162 75.3285 43.0275 74.7288 39.4547C74.8264 42.9995 74.938 46.4602 74.938 50.047V64.4782H67.6995V30.852H78.3551L81.3537 45.9838C81.9255 48.6459 82.3718 51.322 82.8182 54.0541C83.3063 51.2519 83.7666 48.7019 84.2129 45.9978L87.086 30.852Z" fill="#D43031"/>
<path d="M109.401 56.9263H121.954V64.4782H101.103V30.852H121.661V38.2778H109.401V43.8822H119.987V50.9997H109.401V56.9263Z" fill="#D43031"/>
<path d="M36.9599 92.5C36.9599 98.4827 33.3476 102.448 26.2485 102.448H12.8732V68.4433H26.2904C32.8455 68.4433 36.0534 72.2122 36.0534 77.088C36.0534 80.4366 34.7702 83.0567 31.8692 84.2336C35.1747 85.4946 36.9599 88.7311 36.9599 92.5ZM24.9793 75.2526H21.1857V81.9919H24.9375C26.904 81.9919 27.8524 80.955 27.8524 78.5312C27.8524 76.1073 26.904 75.3086 24.9793 75.3086V75.2526ZM25.3699 95.4984C27.4898 95.4984 28.759 94.5316 28.759 91.8415C28.759 89.1514 27.5456 88.0165 25.4535 88.0165H21.1857V95.4984H25.3699Z" fill="#D43031"/>
<path d="M41.1999 85.4946C41.1999 72.6886 46.2906 67.8128 54.4218 67.8128C62.553 67.8128 67.6437 72.6886 67.6437 85.5506C67.6437 98.4126 62.5669 103.246 54.4218 103.246C46.2766 103.246 41.1999 98.3566 41.1999 85.4946ZM59.108 85.4946C59.108 77.5084 57.4762 75.0845 54.4218 75.0845C51.3673 75.0845 49.7355 77.5084 49.7355 85.4666C49.7355 93.4248 51.3673 95.9187 54.4218 95.9187C57.4762 95.9187 59.108 93.5649 59.108 85.4946Z" fill="#D43031"/>
<path d="M97.0443 68.4433L87.4486 90.9869V102.504H78.7177V91.0989L68.9547 68.5134H78.4806L81.6466 77.5644C82.1348 79.1476 82.609 80.7309 83.0413 82.3982C83.5016 80.7169 83.9758 79.1476 84.436 77.5644L87.6578 68.5134L97.0443 68.4433Z" fill="#D43031"/>
<path d="M99.1084 91.7575H107.351C107.519 95.4563 108.746 96.4511 111.173 96.4511C113.6 96.4511 114.436 95.4704 114.436 93.6489C114.436 91.3091 113.265 90.1462 110.991 88.9833L106.486 87.274C102.302 85.4526 99.6105 82.8325 99.6105 77.2982C99.6105 71.4697 103.376 67.7848 111.019 67.7848C118.3 67.7848 121.996 70.8251 122.275 78.1949H114.283C114.102 75.3927 113.209 74.3559 111.089 74.3559C109.192 74.3559 108.174 75.1826 108.174 76.7238C108.174 78.5872 109.109 79.624 111.466 80.927L115.915 82.6223C120.601 84.5418 123.07 87.7924 123.07 93.1586C123.07 100.01 118.537 103.246 111.256 103.246C103.725 103.26 99.6384 100.234 99.1084 91.7575Z" fill="#D43031"/>
<path d="M16.8203 113.432V118.756H15.6208V113.432H12.9987V112.367H19.4423V113.432H16.8203Z" fill="white"/>
<path d="M25.7185 118.756V115.954H21.7297V118.756H20.5302V112.367H21.7297V114.917H25.7185V112.396H26.918V118.784L25.7185 118.756Z" fill="white"/>
<path d="M28.6335 118.756V112.367H34.0868V113.432H29.9027V114.917H32.6921V115.968H29.9027V117.72H34.2542V118.799L28.6335 118.756Z" fill="white"/>
<path d="M40.7954 118.756V115.954H36.8763V118.756H35.6768V112.367H36.8763V114.917H40.8512V112.396H42.0646V118.784L40.7954 118.756Z" fill="white"/>
<path d="M50.2097 117.243C50.2097 118.14 49.889 118.756 49.0382 118.756H44.854C44.0451 118.756 43.6964 118.308 43.6964 117.243V113.867C43.6964 112.942 43.9893 112.367 44.854 112.367H49.0382C50.0005 112.367 50.2237 112.956 50.2237 113.881L50.2097 117.243ZM45.1469 113.432C45.1207 113.43 45.0944 113.434 45.0698 113.443C45.0451 113.452 45.0227 113.466 45.0042 113.485C44.9856 113.504 44.9713 113.526 44.9622 113.551C44.9532 113.576 44.9495 113.602 44.9516 113.628V117.51C44.9516 117.636 44.9517 117.678 45.119 117.678H48.829C48.9684 117.678 48.9963 117.678 48.9963 117.51V113.628C48.9963 113.502 48.9963 113.432 48.815 113.432H45.1469Z" fill="white"/>
<path d="M58.1038 118.756V114.371L55.6631 117.944L53.1665 114.399V118.756H51.9531V112.367H53.1107L55.6491 116.08L58.1596 112.367H59.2614V118.756H58.1038Z" fill="white"/>
<path d="M61.0606 118.756V112.367H66.5558V113.432H62.2601V114.917H65.0495V115.968H62.2601V117.72H66.6116V118.799L61.0606 118.756Z" fill="white"/>
<path d="M73.9896 117.51C73.9896 118.238 73.7246 118.756 72.7623 118.756H68.0342V112.367H72.567C73.5572 112.367 73.9617 112.83 73.9617 113.614V114.553C73.9719 114.695 73.9466 114.837 73.8882 114.967C73.8297 115.097 73.7399 115.21 73.627 115.296C73.5279 115.368 73.4132 115.416 73.2923 115.436C73.4258 115.448 73.5547 115.491 73.6688 115.562C73.7958 115.643 73.8981 115.758 73.9645 115.894C74.0309 116.03 74.0589 116.182 74.0454 116.333L73.9896 117.51ZM72.6925 113.839C72.6925 113.53 72.6925 113.418 72.302 113.418H69.2336V115.002H72.2881C72.5809 115.002 72.6925 114.889 72.6925 114.623V113.839ZM72.7902 116.361C72.7902 116.066 72.7204 115.968 72.3857 115.968H69.2336V117.72H72.3857C72.7204 117.72 72.7902 117.622 72.7902 117.341V116.361Z" fill="white"/>
<path d="M82.0511 117.243C82.0511 118.14 81.7303 118.756 80.8795 118.756H76.6954C75.8864 118.756 75.5378 118.308 75.5378 117.243V113.867C75.5378 112.942 75.8306 112.367 76.6954 112.367H80.8098C81.7721 112.367 81.9953 112.956 81.9953 113.881L82.0511 117.243ZM76.9882 113.432C76.9621 113.43 76.9358 113.434 76.9111 113.443C76.8865 113.452 76.8641 113.466 76.8455 113.485C76.8269 113.504 76.8126 113.526 76.8036 113.551C76.7945 113.576 76.7909 113.602 76.793 113.628V117.51C76.793 117.636 76.793 117.678 76.9604 117.678H80.6703C80.8098 117.678 80.8377 117.678 80.8377 117.51V113.628C80.8377 113.502 80.8377 113.432 80.6563 113.432H76.9882Z" fill="white"/>
<path d="M86.8349 115.842V118.756H85.6913V115.87L82.7484 112.367H84.2268L86.291 114.903L88.397 112.367H89.7917L86.8349 115.842Z" fill="white"/>
<path d="M96.3051 117.566C96.3051 118.294 96.054 118.756 95.1335 118.756H91.3399C91.1874 118.776 91.0325 118.761 90.8866 118.712C90.7408 118.664 90.6079 118.582 90.4978 118.474C90.3878 118.366 90.3035 118.235 90.2512 118.09C90.199 117.944 90.1802 117.789 90.1962 117.636V117.145L91.4096 116.921V117.72H94.9382C94.9608 117.722 94.9835 117.719 95.0048 117.711C95.026 117.704 95.0454 117.691 95.0614 117.675C95.0774 117.659 95.0896 117.64 95.0973 117.618C95.1049 117.597 95.1078 117.574 95.1056 117.552V116.277C95.1056 116.164 95.1056 116.108 94.9243 116.108H91.4793C90.6425 116.108 90.3217 115.688 90.3217 114.988V113.586C90.3217 112.704 90.7123 112.438 91.4933 112.438H95.0638C96.0261 112.438 96.2632 112.858 96.2632 113.586V114.021L95.0638 114.245V113.502H91.7025C91.5909 113.502 91.5212 113.502 91.5212 113.685V114.889C91.5212 115.016 91.5212 115.058 91.7025 115.058H95.1614C95.3157 115.034 95.4733 115.048 95.6216 115.096C95.7699 115.145 95.9049 115.227 96.0159 115.338C96.1269 115.448 96.2108 115.582 96.261 115.731C96.3112 115.879 96.3263 116.037 96.3051 116.192V117.566Z" fill="white"/>
<path d="M98.7319 118.756H97.4627V117.51H98.7319V118.756Z" fill="white"/>
<path d="M106.194 117.566C106.209 117.726 106.188 117.887 106.134 118.039C106.08 118.19 105.993 118.327 105.88 118.441C105.767 118.555 105.63 118.642 105.479 118.697C105.328 118.751 105.168 118.772 105.008 118.756H101.201C101.041 118.772 100.88 118.751 100.73 118.697C100.579 118.642 100.442 118.555 100.329 118.441C100.216 118.327 100.129 118.19 100.074 118.039C100.02 117.887 99.9999 117.726 100.015 117.566V113.516C99.9916 113.355 100.006 113.189 100.057 113.034C100.109 112.879 100.195 112.738 100.311 112.622C100.426 112.507 100.566 112.42 100.721 112.368C100.875 112.317 101.039 112.302 101.201 112.325H105.008C105.168 112.308 105.33 112.326 105.482 112.38C105.634 112.433 105.772 112.521 105.886 112.635C105.999 112.749 106.086 112.888 106.139 113.04C106.193 113.193 106.211 113.356 106.194 113.516V114.497L104.994 114.707V113.39H101.396C101.27 113.39 101.214 113.46 101.214 113.586V117.467C101.214 117.594 101.214 117.636 101.382 117.636H104.994V116.235L106.194 116.445V117.566Z" fill="white"/>
<path d="M114.213 117.243C114.213 118.14 113.892 118.756 113.042 118.756H108.857C108.049 118.756 107.7 118.308 107.7 117.243V113.867C107.7 112.942 107.993 112.367 108.857 112.367H113.042C113.99 112.367 114.213 112.956 114.213 113.881V117.243ZM109.15 113.432C109.124 113.43 109.098 113.434 109.073 113.443C109.049 113.452 109.026 113.466 109.008 113.485C108.989 113.504 108.975 113.526 108.966 113.551C108.957 113.576 108.953 113.602 108.955 113.628V117.51C108.955 117.636 108.955 117.678 109.136 117.678H112.832C112.986 117.678 113.014 117.678 113.014 117.51V113.628C113.014 113.502 113.014 113.432 112.832 113.432H109.15Z" fill="white"/>
<path d="M122.107 118.756V114.371L119.68 117.944L117.184 114.399V118.756H115.971V112.367H117.114L119.653 116.08L122.177 112.367H123.265V118.756H122.107Z" fill="white"/>
</svg>
