<svg width="181" height="70" viewBox="0 0 181 70" fill="none" xmlns="http://www.w3.org/2000/svg">
<path d="M181 17.3995L90.6135 0L0 17.2208L0.999247 22.358L90.6135 5.33823L179.978 22.5367L181 17.3995Z" fill="#111111"/>
<path d="M7.99398 70C6.07261 70 4.22991 69.2493 2.8713 67.9131C1.51268 66.5769 0.74943 64.7646 0.74943 62.8749C0.74943 60.9852 1.51268 59.1729 2.8713 57.8367C4.22991 56.5005 6.07261 55.7498 7.99398 55.7498H173.46C175.382 55.7498 177.224 56.5005 178.583 57.8367C179.941 59.1729 180.705 60.9852 180.705 62.8749C180.705 64.7646 179.941 66.5769 178.583 67.9131C177.224 69.2493 175.382 70 173.46 70H7.99398Z" fill="#111111"/>
<path d="M18.0319 26.1104H24.0273V49.9202H18.0319V40.2489H12.9221V49.9202H6.9039V26.1104H12.9221V34.866H18.0319V26.1104Z" fill="#D43031"/>
<path d="M26.957 38.0377C26.957 29.1034 30.5906 25.6637 36.4044 25.6637C42.2182 25.6637 45.8518 29.081 45.8518 38.0823C45.8518 47.0836 42.2182 50.4563 36.4044 50.4563C30.5906 50.4563 26.957 47.0166 26.957 38.0377ZM39.7428 38.0377C39.7428 32.4537 38.5846 30.7562 36.4044 30.7562C34.2242 30.7562 33.0433 32.4537 33.0433 38.0153C33.0433 43.5769 34.2242 45.3191 36.4044 45.3191C38.5846 45.3191 39.7882 43.6662 39.7882 38.06L39.7428 38.0377Z" fill="#D43031"/>
<path d="M63.5203 26.1104H71.5824V49.9202H66.0639V39.6905L66.2683 32.0294C65.7686 34.598 65.269 37.1219 64.7921 39.6905L62.5211 49.9202H57.9563L55.6853 39.6682C55.1403 37.1889 54.7088 34.6873 54.2546 32.1634C54.2546 34.6873 54.4136 37.1666 54.4136 39.6905V49.9202H48.8723V26.1104H56.9571L59.2281 36.8539C59.6596 38.7301 60.0003 40.6509 60.3409 42.5718C60.7043 40.6286 61.0449 38.7747 61.4083 36.8539L63.5203 26.1104Z" fill="#D43031"/>
<path d="M81.098 44.582H90.1821V49.9202H75.1025V26.1104H90.0004V31.3816H81.1207V35.3574H88.7967V40.4052H81.1207L81.098 44.582Z" fill="#D43031"/>
<path d="M118.82 42.9738C118.82 47.1506 116.231 49.9202 111.166 49.9202H101.605V26.1104H111.189C115.867 26.1104 118.116 28.746 118.116 32.1634C118.222 33.2024 117.985 34.2474 117.442 35.1443C116.898 36.0412 116.075 36.7423 115.095 37.1442C116.263 37.6041 117.252 38.416 117.921 39.4633C118.59 40.5107 118.905 41.7397 118.82 42.9738ZM110.19 30.9126H107.464V35.6254H110.19C111.575 35.6254 112.256 34.8883 112.256 33.1908C112.256 31.4933 111.62 30.9126 110.19 30.9126ZM110.462 45.0511C111.984 45.0511 112.892 44.381 112.892 42.5048C112.892 40.6286 112.029 39.8245 110.621 39.8245H107.555V45.0511H110.462Z" fill="#D43031"/>
<path d="M120.977 38.0377C120.977 29.1034 124.611 25.6637 130.424 25.6637C136.238 25.6637 139.872 29.081 139.872 38.0823C139.872 47.0836 136.238 50.4563 130.424 50.4563C124.611 50.4563 120.977 47.0166 120.977 38.0377ZM133.763 38.0377C133.763 32.4537 132.605 30.7562 130.424 30.7562C128.244 30.7562 127.063 32.4537 127.063 38.0153C127.063 43.5769 128.244 45.3191 130.424 45.3191C132.605 45.3191 133.763 43.6662 133.763 38.06V38.0377Z" fill="#D43031"/>
<path d="M159.562 26.1104L152.976 41.8794V49.9202H146.957V41.9017L140.258 26.1104H146.798L148.956 32.4314C149.297 33.5482 149.615 34.665 149.933 35.8264C150.25 34.6426 150.568 33.5929 150.909 32.4314L153.18 26.1104H159.562Z" fill="#D43031"/>
<path d="M160.266 42.3931H166.148C166.284 44.984 167.169 45.6765 168.895 45.6765C170.621 45.6765 171.166 45.0064 171.166 43.7556C171.166 42.1251 170.326 41.2987 168.714 40.4946L165.489 39.3108C163.998 38.8468 162.706 37.9079 161.818 36.642C160.93 35.3761 160.496 33.8554 160.584 32.3197C160.584 28.2546 163.286 25.619 168.736 25.619C174.187 25.619 176.572 27.8526 176.776 32.9228H171.076C170.939 30.9572 170.303 30.2202 168.805 30.2202C167.306 30.2202 166.738 30.8009 166.738 31.873C166.738 32.9451 167.397 33.9056 169.009 34.799L172.188 35.9828C173.749 36.4758 175.098 37.4656 176.023 38.7962C176.948 40.1267 177.397 41.7222 177.298 43.3312C177.298 48.1334 174.051 50.3893 168.873 50.3893C163.695 50.3893 160.606 48.3344 160.266 42.3931Z" fill="#D43031"/>
<path d="M11.6957 63.1206V66.0689H10.4467V63.1653L7.40353 59.6139H8.9251L11.0599 62.1825L13.3309 59.6139H14.7389L11.6957 63.1206Z" fill="white"/>
<path d="M22.3241 64.5278C22.3241 65.4435 21.9834 66.0689 21.1205 66.0689H16.8509C16.0334 66.0689 15.67 65.6222 15.67 64.5278V61.1328C15.67 60.1947 15.9652 59.6139 16.8509 59.6139H21.0978C22.097 59.6139 22.3241 60.217 22.3241 61.1551V64.5278ZM17.1007 60.7084C16.9645 60.7084 16.8964 60.7084 16.8964 60.8871V64.8181C16.8964 64.8181 16.8964 64.9745 17.078 64.9745H20.8933C21.0523 64.9745 21.075 64.9745 21.075 64.8181V60.8871C21.0789 60.8627 21.0769 60.8378 21.0691 60.8144C21.0614 60.791 21.0481 60.7697 21.0304 60.7523C21.0127 60.7348 20.991 60.7218 20.9672 60.7142C20.9434 60.7065 20.9181 60.7045 20.8933 60.7084H17.1007Z" fill="white"/>
<path d="M30.4316 64.8628C30.449 65.0235 30.43 65.1859 30.376 65.3385C30.322 65.4911 30.2343 65.63 30.1193 65.7453C30.0042 65.8606 29.8646 65.9494 29.7105 66.0054C29.5564 66.0613 29.3917 66.083 29.228 66.0689H25.2764C25.1131 66.086 24.9479 66.0674 24.7928 66.0142C24.6376 65.9611 24.4964 65.8749 24.3792 65.7617C24.2619 65.6486 24.1716 65.5113 24.1147 65.3597C24.0578 65.2081 24.0358 65.0461 24.0501 64.8851V59.6139H25.2991V64.8181C25.2991 64.9521 25.2991 64.9745 25.4808 64.9745H29.0236C29.1599 64.9745 29.1826 64.9745 29.1826 64.8181V59.6139H30.4316V64.8628Z" fill="white"/>
<path d="M38.2893 62.3389C38.2893 63.21 37.8351 63.545 37.0403 63.545H36.2227L38.8344 66.0689H37.2219L34.6103 63.5673H33.4521V66.0912H32.203V59.6362H37.0857C37.2491 59.614 37.4154 59.6293 37.5718 59.6809C37.7281 59.7326 37.8702 59.8191 37.9868 59.9338C38.1034 60.0485 38.1914 60.1882 38.2439 60.342C38.2964 60.4957 38.3119 60.6594 38.2893 60.82V62.3389ZM37.063 61.1551C37.063 60.8424 37.063 60.7084 36.6542 60.7084H33.4521V62.4505H36.6542C36.9721 62.4505 37.063 62.4505 37.063 62.0708V61.1551Z" fill="white"/>
<path d="M48.191 66.0689V63.2323H44.0804V66.0689H42.8541V59.6139H44.0804V62.1602H48.191V59.6139H49.44V66.0689H48.191Z" fill="white"/>
<path d="M57.9563 64.5278C57.9563 65.4435 57.6157 66.0689 56.7527 66.0689H52.4832C51.6429 66.0689 51.2795 65.6222 51.2795 64.5278V61.1328C51.2795 60.1947 51.5975 59.6139 52.4832 59.6139H56.73C57.7292 59.6139 57.9563 60.217 57.9563 61.1551V64.5278ZM52.733 60.7084C52.5967 60.7084 52.5286 60.7084 52.5286 60.8871V64.8181C52.5286 64.8181 52.5286 64.9745 52.7103 64.9745H56.5256C56.6846 64.9745 56.7073 64.9745 56.7073 64.8181V60.8871C56.7111 60.8627 56.7091 60.8378 56.7014 60.8144C56.6936 60.791 56.6803 60.7697 56.6626 60.7523C56.6449 60.7348 56.6233 60.7218 56.5995 60.7142C56.5756 60.7065 56.5503 60.7045 56.5256 60.7084H52.733Z" fill="white"/>
<path d="M65.973 64.8628C65.9904 65.0235 65.9714 65.1859 65.9174 65.3385C65.8634 65.4911 65.7757 65.63 65.6607 65.7453C65.5456 65.8606 65.406 65.9494 65.2519 66.0054C65.0978 66.0613 64.933 66.083 64.7694 66.0689H60.8178C60.6545 66.086 60.4893 66.0674 60.3342 66.0142C60.179 65.9611 60.0378 65.8749 59.9205 65.7617C59.8033 65.6486 59.713 65.5113 59.6561 65.3597C59.5992 65.2081 59.5772 65.0461 59.5915 64.8851V59.6139H60.8406V64.8181C60.8406 64.9521 60.8406 64.9745 61.0222 64.9745H64.565C64.7013 64.9745 64.724 64.9745 64.724 64.8181V59.6139H65.973V64.8628Z" fill="white"/>
<path d="M73.8535 64.8628C73.8535 65.5999 73.6036 66.0689 72.6498 66.0689H68.7437C68.5854 66.0905 68.4243 66.0761 68.2726 66.0269C68.1209 65.9776 67.9827 65.8948 67.8686 65.7848C67.7546 65.6747 67.6677 65.5405 67.6146 65.3922C67.5616 65.244 67.5438 65.0858 67.5627 64.9298V64.4384L68.8118 64.2151V64.9745H72.4454C72.559 64.9745 72.6044 64.9745 72.6044 64.8181V63.5673C72.6044 63.5673 72.6044 63.411 72.4227 63.411H68.8799C68.0169 63.411 67.6763 62.9866 67.6763 62.2719V60.82C67.6763 59.9266 68.0851 59.6586 68.8799 59.6586H72.5817C73.5582 59.6586 73.808 60.1053 73.808 60.82V61.2668L72.5817 61.4901V60.753H69.107C68.9935 60.753 68.9254 60.753 68.9254 60.9317V62.1378C68.9254 62.2719 68.9254 62.3165 69.107 62.3165H72.6725C72.8316 62.2901 72.9948 62.3011 73.1488 62.3487C73.3027 62.3962 73.443 62.4789 73.5582 62.59C73.6734 62.7011 73.7602 62.8375 73.8116 62.988C73.8629 63.1384 73.8772 63.2987 73.8535 63.4556V64.8628Z" fill="white"/>
<path d="M76.8512 66.0689H75.6021V59.6139H76.8512V66.0689Z" fill="white"/>
<path d="M84.0957 66.0689L79.7808 61.3561V66.0689H78.6226V59.6139H79.7354L84.0276 64.3491V59.6139H85.2085V66.0689H84.0957Z" fill="white"/>
<path d="M93.5432 64.8851C93.5575 65.0461 93.5354 65.2081 93.4785 65.3597C93.4216 65.5113 93.3313 65.6486 93.2141 65.7617C93.0968 65.8749 92.9556 65.9611 92.8005 66.0142C92.6453 66.0673 92.4802 66.086 92.3168 66.0689H88.1608C87.9984 66.0866 87.834 66.0682 87.6797 66.015C87.5255 65.9618 87.3854 65.8751 87.2699 65.7614C87.1543 65.6478 87.0662 65.51 87.012 65.3583C86.9579 65.2066 86.9392 65.0449 86.9572 64.8851V60.7977C86.9392 60.6379 86.9579 60.4762 87.012 60.3245C87.0662 60.1728 87.1543 60.0351 87.2699 59.9214C87.3854 59.8077 87.5255 59.7211 87.6797 59.6678C87.834 59.6146 87.9984 59.5962 88.1608 59.6139H92.3395C92.5041 59.5955 92.6708 59.6143 92.8269 59.6687C92.983 59.7232 93.1245 59.8119 93.2405 59.9282C93.3565 60.0445 93.4441 60.1852 93.4965 60.3398C93.549 60.4943 93.5649 60.6585 93.5432 60.82V61.3338L92.2941 61.5571V60.753H88.3879C88.2517 60.753 88.2063 60.753 88.2063 60.9094V64.8628C88.2063 64.8628 88.2063 65.0191 88.3652 65.0191H92.1351C92.1351 65.0191 92.2941 65.0192 92.2941 64.8628V63.5673H90.2956V62.5846H93.5432V64.8851Z" fill="white"/>
<path d="M104.308 64.8628C104.308 65.5999 104.035 66.0689 103.081 66.0689H99.198C99.0398 66.0905 98.8786 66.0761 98.7269 66.0269C98.5752 65.9776 98.437 65.8948 98.3229 65.7848C98.2089 65.6747 98.122 65.5405 98.069 65.3922C98.016 65.244 97.9982 65.0858 98.0171 64.9298V64.4384L99.2661 64.2151V64.9745H102.9C102.922 64.9785 102.944 64.9772 102.965 64.9708C102.986 64.9643 103.005 64.9529 103.021 64.9375C103.037 64.9221 103.048 64.9032 103.055 64.8824C103.061 64.8616 103.063 64.8395 103.059 64.8181V63.5673C103.059 63.5673 103.059 63.411 102.877 63.411H99.3343C98.4713 63.411 98.1306 62.9866 98.1306 62.2719V60.82C98.1306 59.9266 98.5394 59.6586 99.3343 59.6586H103.013C104.013 59.6586 104.262 60.1053 104.262 60.82V61.2668L103.013 61.4901V60.753H99.5614C99.5614 60.753 99.3797 60.753 99.3797 60.9317V62.1378C99.3797 62.2719 99.3797 62.3165 99.5614 62.3165H103.127C103.286 62.2901 103.449 62.3011 103.603 62.3487C103.757 62.3962 103.897 62.4789 104.013 62.59C104.128 62.7011 104.215 62.8375 104.266 62.988C104.317 63.1384 104.332 63.2987 104.308 63.4556V64.8628Z" fill="white"/>
<path d="M112.461 64.8628C112.478 65.0235 112.459 65.1859 112.405 65.3385C112.351 65.4911 112.263 65.63 112.148 65.7453C112.033 65.8606 111.894 65.9494 111.74 66.0054C111.586 66.0613 111.421 66.083 111.257 66.0689H107.306C107.142 66.086 106.977 66.0674 106.822 66.0142C106.667 65.9611 106.525 65.8749 106.408 65.7617C106.291 65.6486 106.201 65.5113 106.144 65.3597C106.087 65.2081 106.065 65.0461 106.079 64.8851V59.6139H107.328V64.8181C107.328 64.9521 107.328 64.9745 107.51 64.9745H111.03C111.189 64.9745 111.212 64.9745 111.212 64.8181V59.6139H112.461V64.8628Z" fill="white"/>
<path d="M120.159 62.5175C120.159 63.411 119.705 63.7237 118.91 63.7237H115.345V66.0689H114.119V59.6139H118.956C119.119 59.5917 119.286 59.607 119.442 59.6586C119.598 59.7102 119.74 59.7968 119.857 59.9115C119.974 60.0262 120.062 60.1659 120.114 60.3196C120.167 60.4734 120.182 60.637 120.159 60.7977V62.5175ZM118.933 61.1551C118.933 60.8424 118.933 60.7084 118.524 60.7084H115.345V62.6516H118.524C118.842 62.6516 118.933 62.5176 118.933 62.2495V61.1551Z" fill="white"/>
<path d="M121.704 66.0689V59.6139H127.381V60.7084H122.953V62.2272H125.86V63.2993H122.953V64.9745H127.495V66.0689H121.704Z" fill="white"/>
<path d="M135.171 62.3389C135.171 63.21 134.717 63.545 133.922 63.545H133.104L135.716 66.0689H134.103L131.401 63.5673H130.265V66.0912H129.016V59.6362H133.899C134.062 59.614 134.229 59.6293 134.385 59.6809C134.542 59.7326 134.684 59.8191 134.8 59.9338C134.917 60.0485 135.005 60.1882 135.057 60.342C135.11 60.4957 135.125 60.6594 135.103 60.82L135.171 62.3389ZM133.922 61.1551C133.922 60.8424 133.922 60.7084 133.536 60.7084H130.334V62.4505H133.536C133.854 62.4505 133.922 62.4505 133.922 62.0708V61.1551Z" fill="white"/>
<path d="M143.051 64.8628C143.051 65.5999 142.801 66.0689 141.848 66.0689H137.942C137.783 66.0905 137.622 66.0761 137.47 66.0269C137.319 65.9776 137.181 65.8948 137.066 65.7848C136.952 65.6747 136.865 65.5405 136.812 65.3922C136.759 65.244 136.742 65.0858 136.761 64.9298V64.4384L138.01 64.2151V64.9745H141.643C141.643 64.9745 141.802 64.9745 141.802 64.8181V63.5673C141.802 63.5673 141.802 63.411 141.621 63.411H138.078C137.215 63.411 136.874 62.9866 136.874 62.2719V60.82C136.874 59.9266 137.283 59.6586 138.078 59.6586H141.78C142.756 59.6586 143.006 60.1053 143.006 60.82V61.2668L141.78 61.4901V60.753H138.305C138.191 60.753 138.123 60.753 138.123 60.9317V62.1378C138.123 62.2719 138.123 62.3165 138.305 62.3165H141.984C142.143 62.2901 142.306 62.3011 142.46 62.3487C142.614 62.3962 142.754 62.4789 142.87 62.59C142.985 62.7011 143.072 62.8375 143.123 62.988C143.174 63.1384 143.189 63.2987 143.165 63.4556L143.051 64.8628Z" fill="white"/>
<path d="M148.252 60.7084V66.0689H147.026V60.7084H144.255V59.6139H151.068V60.7084H148.252Z" fill="white"/>
<path d="M158.971 64.5278C158.971 65.4435 158.653 66.0689 157.768 66.0689H153.521C152.68 66.0689 152.317 65.6222 152.317 64.5278V61.1328C152.317 60.1947 152.612 59.6139 153.521 59.6139H157.881C158.858 59.6139 159.085 60.217 159.085 61.1551L158.971 64.5278ZM153.748 60.7084C153.722 60.7052 153.696 60.7074 153.671 60.715C153.647 60.7225 153.624 60.7352 153.604 60.7521C153.585 60.769 153.57 60.7898 153.559 60.8131C153.549 60.8364 153.543 60.8616 153.543 60.8871V64.8181C153.543 64.8181 153.543 64.9745 153.725 64.9745H157.563C157.699 64.9745 157.722 64.9745 157.722 64.8181V60.8871C157.722 60.8871 157.722 60.7084 157.54 60.7084H153.748Z" fill="white"/>
<path d="M166.829 62.3389C166.829 63.21 166.375 63.545 165.58 63.545H164.694L167.306 66.0689H165.693L163.127 63.5673H161.969V66.0912H160.743V59.6362H165.625C165.789 59.614 165.955 59.6293 166.111 59.6809C166.268 59.7326 166.41 59.8191 166.526 59.9338C166.643 60.0485 166.731 60.1882 166.783 60.342C166.836 60.4957 166.851 60.6594 166.829 60.82V62.3389ZM165.58 61.1551C165.58 60.8424 165.58 60.7084 165.194 60.7084H161.969V62.4505H165.194C165.512 62.4505 165.58 62.4505 165.58 62.0708V61.1551Z" fill="white"/>
<path d="M168.782 66.0689V59.6139H174.437V60.7084H169.895V62.2272H172.802V63.2993H169.895V64.9745H174.437V66.0689H168.782Z" fill="white"/>
</svg>
